<mxfile host="Electron" agent="Mozilla/5.0 (Windows NT 10.0; Win64; x64) AppleWebKit/537.36 (KHTML, like Gecko) draw.io/28.1.2 Chrome/138.0.7204.243 Electron/37.4.0 Safari/537.36" version="28.1.2">
  <diagram name="Page-1" id="ZmJrzv6IT6jI842BOoQp">
    <mxGraphModel dx="1042" dy="626" grid="1" gridSize="10" guides="1" tooltips="1" connect="1" arrows="1" fold="1" page="1" pageScale="1" pageWidth="1100" pageHeight="850" math="0" shadow="0">
      <root>
        <mxCell id="0" />
        <mxCell id="1" parent="0" />
        <mxCell id="AmxwaUaVY4FBrTd4A1zo-1" value="" style="rounded=1;whiteSpace=wrap;html=1;fillColor=none;dashed=1;" vertex="1" parent="1">
          <mxGeometry x="320" y="160" width="120" height="400" as="geometry" />
        </mxCell>
        <mxCell id="AmxwaUaVY4FBrTd4A1zo-2" value="&lt;font style=&quot;font-size: 18px;&quot;&gt;Bronze Layer&lt;/font&gt;" style="rounded=1;whiteSpace=wrap;html=1;fillColor=#ffe6cc;strokeColor=#d79b00;" vertex="1" parent="1">
          <mxGeometry x="320" y="130" width="120" height="30" as="geometry" />
        </mxCell>
        <mxCell id="AmxwaUaVY4FBrTd4A1zo-3" value="" style="rounded=1;whiteSpace=wrap;html=1;fillColor=none;dashed=1;" vertex="1" parent="1">
          <mxGeometry x="520" y="160" width="120" height="400" as="geometry" />
        </mxCell>
        <mxCell id="AmxwaUaVY4FBrTd4A1zo-4" value="&lt;font style=&quot;font-size: 18px;&quot;&gt;Silver Layer&lt;/font&gt;" style="rounded=1;whiteSpace=wrap;html=1;fillColor=#f5f5f5;strokeColor=#666666;fontColor=#333333;" vertex="1" parent="1">
          <mxGeometry x="520" y="130" width="120" height="30" as="geometry" />
        </mxCell>
        <mxCell id="AmxwaUaVY4FBrTd4A1zo-5" value="" style="rounded=1;whiteSpace=wrap;html=1;fillColor=none;dashed=1;" vertex="1" parent="1">
          <mxGeometry x="720" y="160" width="120" height="400" as="geometry" />
        </mxCell>
        <mxCell id="AmxwaUaVY4FBrTd4A1zo-6" value="&lt;font style=&quot;font-size: 18px;&quot;&gt;Gold Layer&lt;/font&gt;" style="rounded=1;whiteSpace=wrap;html=1;fillColor=#fff2cc;strokeColor=#d6b656;" vertex="1" parent="1">
          <mxGeometry x="720" y="130" width="120" height="30" as="geometry" />
        </mxCell>
        <mxCell id="AmxwaUaVY4FBrTd4A1zo-7" value="" style="rounded=1;whiteSpace=wrap;html=1;fillColor=none;strokeColor=light-dark(#23268b, #ededed);dashed=1;dashPattern=8 8;" vertex="1" parent="1">
          <mxGeometry x="120" y="160" width="120" height="400" as="geometry" />
        </mxCell>
        <mxCell id="AmxwaUaVY4FBrTd4A1zo-8" value="&lt;font style=&quot;font-size: 20px;&quot;&gt;Sources&lt;/font&gt;" style="rounded=0;whiteSpace=wrap;html=1;strokeColor=none;fillColor=default;" vertex="1" parent="1">
          <mxGeometry x="135" y="140" width="90" height="20" as="geometry" />
        </mxCell>
        <mxCell id="AmxwaUaVY4FBrTd4A1zo-9" value="" style="image;aspect=fixed;html=1;points=[];align=center;fontSize=12;image=img/lib/azure2/general/Folder_Blank.svg;" vertex="1" parent="1">
          <mxGeometry x="145.53999999999996" y="240.00000000000006" width="49.29" height="40" as="geometry" />
        </mxCell>
        <mxCell id="AmxwaUaVY4FBrTd4A1zo-10" value="" style="image;aspect=fixed;html=1;points=[];align=center;fontSize=12;image=img/lib/azure2/general/File.svg;" vertex="1" parent="1">
          <mxGeometry x="179.32999999999998" y="260.00000000000006" width="24.35" height="30" as="geometry" />
        </mxCell>
        <mxCell id="AmxwaUaVY4FBrTd4A1zo-11" value="" style="image;aspect=fixed;html=1;points=[];align=center;fontSize=12;image=img/lib/azure2/general/Folder_Blank.svg;" vertex="1" parent="1">
          <mxGeometry x="145.56" y="385.00000000000006" width="49.29" height="40" as="geometry" />
        </mxCell>
        <mxCell id="AmxwaUaVY4FBrTd4A1zo-12" value="" style="image;aspect=fixed;html=1;points=[];align=center;fontSize=12;image=img/lib/azure2/general/File.svg;" vertex="1" parent="1">
          <mxGeometry x="179.35000000000002" y="405.00000000000006" width="24.35" height="30" as="geometry" />
        </mxCell>
        <mxCell id="AmxwaUaVY4FBrTd4A1zo-13" value="CRM [CSV Files]" style="rounded=0;whiteSpace=wrap;html=1;strokeColor=none;fillColor=none;" vertex="1" parent="1">
          <mxGeometry x="136.72" y="300.00000000000006" width="65.21" height="24.55" as="geometry" />
        </mxCell>
        <mxCell id="AmxwaUaVY4FBrTd4A1zo-14" value="ERP [CSV Files]" style="rounded=0;whiteSpace=wrap;html=1;strokeColor=none;fillColor=none;" vertex="1" parent="1">
          <mxGeometry x="137.95" y="445.00000000000006" width="64.5" height="20" as="geometry" />
        </mxCell>
        <mxCell id="AmxwaUaVY4FBrTd4A1zo-15" value="crm_customers" style="rounded=1;whiteSpace=wrap;html=1;fillColor=#dae8fc;strokeColor=#6c8ebf;" vertex="1" parent="1">
          <mxGeometry x="330" y="170" width="100" height="30" as="geometry" />
        </mxCell>
        <mxCell id="AmxwaUaVY4FBrTd4A1zo-16" value="crm_returns" style="rounded=1;whiteSpace=wrap;html=1;fillColor=#dae8fc;strokeColor=#6c8ebf;" vertex="1" parent="1">
          <mxGeometry x="330" y="210" width="100" height="30" as="geometry" />
        </mxCell>
        <mxCell id="AmxwaUaVY4FBrTd4A1zo-17" value="crm_sales_orders" style="rounded=1;whiteSpace=wrap;html=1;fillColor=#dae8fc;strokeColor=#6c8ebf;" vertex="1" parent="1">
          <mxGeometry x="330" y="250" width="100" height="30" as="geometry" />
        </mxCell>
        <mxCell id="AmxwaUaVY4FBrTd4A1zo-18" value="crm_sales_leads" style="rounded=1;whiteSpace=wrap;html=1;fillColor=#dae8fc;strokeColor=#6c8ebf;" vertex="1" parent="1">
          <mxGeometry x="330" y="290" width="100" height="30" as="geometry" />
        </mxCell>
        <mxCell id="AmxwaUaVY4FBrTd4A1zo-20" value="" style="shape=link;html=1;rounded=0;" edge="1" parent="1">
          <mxGeometry width="100" relative="1" as="geometry">
            <mxPoint x="330" y="330" as="sourcePoint" />
            <mxPoint x="430" y="330" as="targetPoint" />
          </mxGeometry>
        </mxCell>
        <mxCell id="AmxwaUaVY4FBrTd4A1zo-21" value="erp_inventory" style="rounded=1;whiteSpace=wrap;html=1;fillColor=#d5e8d4;strokeColor=#82b366;" vertex="1" parent="1">
          <mxGeometry x="330" y="340" width="100" height="30" as="geometry" />
        </mxCell>
        <mxCell id="AmxwaUaVY4FBrTd4A1zo-22" value="erp_inventory&lt;br&gt;_transactions" style="rounded=1;whiteSpace=wrap;html=1;fillColor=#d5e8d4;strokeColor=#82b366;" vertex="1" parent="1">
          <mxGeometry x="330" y="375" width="100" height="30" as="geometry" />
        </mxCell>
        <mxCell id="AmxwaUaVY4FBrTd4A1zo-23" value="erp_products" style="rounded=1;whiteSpace=wrap;html=1;fillColor=#d5e8d4;strokeColor=#82b366;" vertex="1" parent="1">
          <mxGeometry x="330" y="410" width="100" height="30" as="geometry" />
        </mxCell>
        <mxCell id="AmxwaUaVY4FBrTd4A1zo-24" value="erp_purchase&lt;br&gt;_orders" style="rounded=1;whiteSpace=wrap;html=1;fillColor=#d5e8d4;strokeColor=#82b366;" vertex="1" parent="1">
          <mxGeometry x="330" y="450" width="100" height="30" as="geometry" />
        </mxCell>
        <mxCell id="AmxwaUaVY4FBrTd4A1zo-25" value="erp_suppliers" style="rounded=1;whiteSpace=wrap;html=1;fillColor=#d5e8d4;strokeColor=#82b366;" vertex="1" parent="1">
          <mxGeometry x="330" y="490" width="100" height="30" as="geometry" />
        </mxCell>
        <mxCell id="AmxwaUaVY4FBrTd4A1zo-26" value="crm_customers" style="rounded=1;whiteSpace=wrap;html=1;fillColor=#dae8fc;strokeColor=#6c8ebf;" vertex="1" parent="1">
          <mxGeometry x="530" y="170" width="100" height="30" as="geometry" />
        </mxCell>
        <mxCell id="AmxwaUaVY4FBrTd4A1zo-27" value="crm_returns" style="rounded=1;whiteSpace=wrap;html=1;fillColor=#dae8fc;strokeColor=#6c8ebf;" vertex="1" parent="1">
          <mxGeometry x="530" y="210" width="100" height="30" as="geometry" />
        </mxCell>
        <mxCell id="AmxwaUaVY4FBrTd4A1zo-28" value="crm_sales_orders" style="rounded=1;whiteSpace=wrap;html=1;fillColor=#dae8fc;strokeColor=#6c8ebf;" vertex="1" parent="1">
          <mxGeometry x="530" y="250" width="100" height="30" as="geometry" />
        </mxCell>
        <mxCell id="AmxwaUaVY4FBrTd4A1zo-29" value="crm_sales_leads" style="rounded=1;whiteSpace=wrap;html=1;fillColor=#dae8fc;strokeColor=#6c8ebf;" vertex="1" parent="1">
          <mxGeometry x="530" y="290" width="100" height="30" as="geometry" />
        </mxCell>
        <mxCell id="AmxwaUaVY4FBrTd4A1zo-30" value="" style="shape=link;html=1;rounded=0;" edge="1" parent="1">
          <mxGeometry width="100" relative="1" as="geometry">
            <mxPoint x="530" y="330" as="sourcePoint" />
            <mxPoint x="630" y="330" as="targetPoint" />
          </mxGeometry>
        </mxCell>
        <mxCell id="AmxwaUaVY4FBrTd4A1zo-31" value="erp_inventory" style="rounded=1;whiteSpace=wrap;html=1;fillColor=#d5e8d4;strokeColor=#82b366;" vertex="1" parent="1">
          <mxGeometry x="530" y="340" width="100" height="30" as="geometry" />
        </mxCell>
        <mxCell id="AmxwaUaVY4FBrTd4A1zo-32" value="erp_inventory&lt;br&gt;_transactions" style="rounded=1;whiteSpace=wrap;html=1;fillColor=#d5e8d4;strokeColor=#82b366;" vertex="1" parent="1">
          <mxGeometry x="530" y="375" width="100" height="30" as="geometry" />
        </mxCell>
        <mxCell id="AmxwaUaVY4FBrTd4A1zo-33" value="erp_products" style="rounded=1;whiteSpace=wrap;html=1;fillColor=#d5e8d4;strokeColor=#82b366;" vertex="1" parent="1">
          <mxGeometry x="530" y="410" width="100" height="30" as="geometry" />
        </mxCell>
        <mxCell id="AmxwaUaVY4FBrTd4A1zo-34" value="erp_purchase&lt;br&gt;_orders" style="rounded=1;whiteSpace=wrap;html=1;fillColor=#d5e8d4;strokeColor=#82b366;" vertex="1" parent="1">
          <mxGeometry x="530" y="450" width="100" height="30" as="geometry" />
        </mxCell>
        <mxCell id="AmxwaUaVY4FBrTd4A1zo-35" value="erp_suppliers" style="rounded=1;whiteSpace=wrap;html=1;fillColor=#d5e8d4;strokeColor=#82b366;" vertex="1" parent="1">
          <mxGeometry x="530" y="490" width="100" height="30" as="geometry" />
        </mxCell>
        <mxCell id="AmxwaUaVY4FBrTd4A1zo-36" value="" style="endArrow=classic;html=1;rounded=0;entryX=0;entryY=0.068;entryDx=0;entryDy=0;entryPerimeter=0;" edge="1" parent="1" target="AmxwaUaVY4FBrTd4A1zo-1">
          <mxGeometry width="50" height="50" relative="1" as="geometry">
            <mxPoint x="240" y="260" as="sourcePoint" />
            <mxPoint x="290" y="210" as="targetPoint" />
          </mxGeometry>
        </mxCell>
        <mxCell id="AmxwaUaVY4FBrTd4A1zo-37" value="" style="endArrow=classic;html=1;rounded=0;entryX=-0.006;entryY=0.164;entryDx=0;entryDy=0;entryPerimeter=0;exitX=1;exitY=0.25;exitDx=0;exitDy=0;" edge="1" parent="1" source="AmxwaUaVY4FBrTd4A1zo-7" target="AmxwaUaVY4FBrTd4A1zo-1">
          <mxGeometry width="50" height="50" relative="1" as="geometry">
            <mxPoint x="250" y="290" as="sourcePoint" />
            <mxPoint x="330" y="217" as="targetPoint" />
          </mxGeometry>
        </mxCell>
        <mxCell id="AmxwaUaVY4FBrTd4A1zo-38" value="" style="endArrow=classic;html=1;rounded=0;entryX=0;entryY=0.25;entryDx=0;entryDy=0;exitX=1;exitY=0.25;exitDx=0;exitDy=0;" edge="1" parent="1" source="AmxwaUaVY4FBrTd4A1zo-7" target="AmxwaUaVY4FBrTd4A1zo-1">
          <mxGeometry width="50" height="50" relative="1" as="geometry">
            <mxPoint x="280" y="284" as="sourcePoint" />
            <mxPoint x="359" y="250" as="targetPoint" />
          </mxGeometry>
        </mxCell>
        <mxCell id="AmxwaUaVY4FBrTd4A1zo-39" value="" style="endArrow=classic;html=1;rounded=0;entryX=0.011;entryY=0.366;entryDx=0;entryDy=0;entryPerimeter=0;exitX=1;exitY=0.25;exitDx=0;exitDy=0;" edge="1" parent="1" source="AmxwaUaVY4FBrTd4A1zo-7" target="AmxwaUaVY4FBrTd4A1zo-1">
          <mxGeometry width="50" height="50" relative="1" as="geometry">
            <mxPoint x="290" y="314" as="sourcePoint" />
            <mxPoint x="369" y="280" as="targetPoint" />
          </mxGeometry>
        </mxCell>
        <mxCell id="AmxwaUaVY4FBrTd4A1zo-40" value="" style="endArrow=classic;html=1;rounded=0;entryX=0;entryY=0.5;entryDx=0;entryDy=0;exitX=1;exitY=0.663;exitDx=0;exitDy=0;exitPerimeter=0;" edge="1" parent="1" source="AmxwaUaVY4FBrTd4A1zo-7" target="AmxwaUaVY4FBrTd4A1zo-1">
          <mxGeometry width="50" height="50" relative="1" as="geometry">
            <mxPoint x="250" y="343" as="sourcePoint" />
            <mxPoint x="330" y="270" as="targetPoint" />
          </mxGeometry>
        </mxCell>
        <mxCell id="AmxwaUaVY4FBrTd4A1zo-41" value="" style="endArrow=classic;html=1;rounded=0;entryX=-0.006;entryY=0.856;entryDx=0;entryDy=0;entryPerimeter=0;exitX=0.989;exitY=0.664;exitDx=0;exitDy=0;exitPerimeter=0;" edge="1" parent="1" source="AmxwaUaVY4FBrTd4A1zo-7" target="AmxwaUaVY4FBrTd4A1zo-1">
          <mxGeometry width="50" height="50" relative="1" as="geometry">
            <mxPoint x="280" y="453" as="sourcePoint" />
            <mxPoint x="360" y="380" as="targetPoint" />
          </mxGeometry>
        </mxCell>
        <mxCell id="AmxwaUaVY4FBrTd4A1zo-42" value="" style="endArrow=classic;html=1;rounded=0;entryX=0;entryY=0.75;entryDx=0;entryDy=0;exitX=1.006;exitY=0.668;exitDx=0;exitDy=0;exitPerimeter=0;" edge="1" parent="1" source="AmxwaUaVY4FBrTd4A1zo-7" target="AmxwaUaVY4FBrTd4A1zo-1">
          <mxGeometry width="50" height="50" relative="1" as="geometry">
            <mxPoint x="280" y="453" as="sourcePoint" />
            <mxPoint x="360" y="380" as="targetPoint" />
          </mxGeometry>
        </mxCell>
        <mxCell id="AmxwaUaVY4FBrTd4A1zo-43" value="" style="endArrow=classic;html=1;rounded=0;entryX=0.011;entryY=0.658;entryDx=0;entryDy=0;entryPerimeter=0;exitX=1;exitY=0.664;exitDx=0;exitDy=0;exitPerimeter=0;" edge="1" parent="1" source="AmxwaUaVY4FBrTd4A1zo-7" target="AmxwaUaVY4FBrTd4A1zo-1">
          <mxGeometry width="50" height="50" relative="1" as="geometry">
            <mxPoint x="280" y="453" as="sourcePoint" />
            <mxPoint x="360" y="380" as="targetPoint" />
          </mxGeometry>
        </mxCell>
        <mxCell id="AmxwaUaVY4FBrTd4A1zo-44" value="" style="endArrow=classic;html=1;rounded=0;entryX=0;entryY=0.583;entryDx=0;entryDy=0;entryPerimeter=0;exitX=0.994;exitY=0.663;exitDx=0;exitDy=0;exitPerimeter=0;" edge="1" parent="1" source="AmxwaUaVY4FBrTd4A1zo-7" target="AmxwaUaVY4FBrTd4A1zo-1">
          <mxGeometry width="50" height="50" relative="1" as="geometry">
            <mxPoint x="280" y="453" as="sourcePoint" />
            <mxPoint x="360" y="380" as="targetPoint" />
          </mxGeometry>
        </mxCell>
        <mxCell id="AmxwaUaVY4FBrTd4A1zo-45" value="" style="shape=singleArrow;whiteSpace=wrap;html=1;" vertex="1" parent="1">
          <mxGeometry x="440" y="180" width="80" height="10" as="geometry" />
        </mxCell>
        <mxCell id="AmxwaUaVY4FBrTd4A1zo-46" value="" style="shape=singleArrow;whiteSpace=wrap;html=1;" vertex="1" parent="1">
          <mxGeometry x="440" y="220" width="80" height="10" as="geometry" />
        </mxCell>
        <mxCell id="AmxwaUaVY4FBrTd4A1zo-47" value="" style="shape=singleArrow;whiteSpace=wrap;html=1;" vertex="1" parent="1">
          <mxGeometry x="440" y="255" width="80" height="10" as="geometry" />
        </mxCell>
        <mxCell id="AmxwaUaVY4FBrTd4A1zo-48" value="" style="shape=singleArrow;whiteSpace=wrap;html=1;" vertex="1" parent="1">
          <mxGeometry x="440" y="300" width="80" height="10" as="geometry" />
        </mxCell>
        <mxCell id="AmxwaUaVY4FBrTd4A1zo-49" value="" style="shape=singleArrow;whiteSpace=wrap;html=1;" vertex="1" parent="1">
          <mxGeometry x="440" y="350" width="80" height="10" as="geometry" />
        </mxCell>
        <mxCell id="AmxwaUaVY4FBrTd4A1zo-50" value="" style="shape=singleArrow;whiteSpace=wrap;html=1;" vertex="1" parent="1">
          <mxGeometry x="440" y="385" width="80" height="10" as="geometry" />
        </mxCell>
        <mxCell id="AmxwaUaVY4FBrTd4A1zo-51" value="" style="shape=singleArrow;whiteSpace=wrap;html=1;" vertex="1" parent="1">
          <mxGeometry x="440" y="420" width="80" height="10" as="geometry" />
        </mxCell>
        <mxCell id="AmxwaUaVY4FBrTd4A1zo-52" value="" style="shape=singleArrow;whiteSpace=wrap;html=1;" vertex="1" parent="1">
          <mxGeometry x="440" y="460" width="80" height="10" as="geometry" />
        </mxCell>
        <mxCell id="AmxwaUaVY4FBrTd4A1zo-53" value="" style="shape=singleArrow;whiteSpace=wrap;html=1;" vertex="1" parent="1">
          <mxGeometry x="440" y="500" width="80" height="10" as="geometry" />
        </mxCell>
        <mxCell id="AmxwaUaVY4FBrTd4A1zo-72" style="edgeStyle=orthogonalEdgeStyle;rounded=0;orthogonalLoop=1;jettySize=auto;html=1;entryX=1;entryY=0.5;entryDx=0;entryDy=0;jumpStyle=gap;" edge="1" parent="1" source="AmxwaUaVY4FBrTd4A1zo-54" target="AmxwaUaVY4FBrTd4A1zo-61">
          <mxGeometry relative="1" as="geometry">
            <Array as="points">
              <mxPoint x="880" y="185" />
              <mxPoint x="880" y="395" />
            </Array>
          </mxGeometry>
        </mxCell>
        <mxCell id="AmxwaUaVY4FBrTd4A1zo-75" style="edgeStyle=orthogonalEdgeStyle;rounded=0;orthogonalLoop=1;jettySize=auto;html=1;entryX=1;entryY=0.5;entryDx=0;entryDy=0;jumpStyle=gap;" edge="1" parent="1" source="AmxwaUaVY4FBrTd4A1zo-54" target="AmxwaUaVY4FBrTd4A1zo-62">
          <mxGeometry relative="1" as="geometry">
            <Array as="points">
              <mxPoint x="920" y="185" />
              <mxPoint x="920" y="435" />
            </Array>
          </mxGeometry>
        </mxCell>
        <mxCell id="AmxwaUaVY4FBrTd4A1zo-80" style="edgeStyle=orthogonalEdgeStyle;rounded=0;orthogonalLoop=1;jettySize=auto;html=1;entryX=1;entryY=0.5;entryDx=0;entryDy=0;jumpStyle=gap;" edge="1" parent="1" source="AmxwaUaVY4FBrTd4A1zo-54" target="AmxwaUaVY4FBrTd4A1zo-63">
          <mxGeometry relative="1" as="geometry">
            <Array as="points">
              <mxPoint x="940" y="185" />
              <mxPoint x="940" y="475" />
            </Array>
          </mxGeometry>
        </mxCell>
        <mxCell id="AmxwaUaVY4FBrTd4A1zo-85" style="edgeStyle=orthogonalEdgeStyle;rounded=0;orthogonalLoop=1;jettySize=auto;html=1;entryX=1;entryY=0.5;entryDx=0;entryDy=0;jumpStyle=gap;" edge="1" parent="1" source="AmxwaUaVY4FBrTd4A1zo-54" target="AmxwaUaVY4FBrTd4A1zo-64">
          <mxGeometry relative="1" as="geometry">
            <Array as="points">
              <mxPoint x="870" y="185" />
              <mxPoint x="870" y="515" />
            </Array>
          </mxGeometry>
        </mxCell>
        <mxCell id="AmxwaUaVY4FBrTd4A1zo-54" value="dim_date" style="rounded=1;whiteSpace=wrap;html=1;fillColor=#f0a30a;strokeColor=#BD7000;fontColor=#000000;" vertex="1" parent="1">
          <mxGeometry x="730" y="170" width="100" height="30" as="geometry" />
        </mxCell>
        <mxCell id="AmxwaUaVY4FBrTd4A1zo-70" style="edgeStyle=orthogonalEdgeStyle;rounded=0;orthogonalLoop=1;jettySize=auto;html=1;exitX=1;exitY=0.5;exitDx=0;exitDy=0;entryX=1;entryY=0.5;entryDx=0;entryDy=0;jumpStyle=gap;" edge="1" parent="1" source="AmxwaUaVY4FBrTd4A1zo-55" target="AmxwaUaVY4FBrTd4A1zo-61">
          <mxGeometry relative="1" as="geometry">
            <mxPoint x="880" y="400" as="targetPoint" />
            <Array as="points">
              <mxPoint x="880" y="225" />
              <mxPoint x="880" y="395" />
            </Array>
          </mxGeometry>
        </mxCell>
        <mxCell id="AmxwaUaVY4FBrTd4A1zo-55" value="dim_customers" style="rounded=1;whiteSpace=wrap;html=1;fillColor=#f0a30a;strokeColor=#BD7000;fontColor=#000000;" vertex="1" parent="1">
          <mxGeometry x="730" y="210" width="100" height="30" as="geometry" />
        </mxCell>
        <mxCell id="AmxwaUaVY4FBrTd4A1zo-71" style="edgeStyle=orthogonalEdgeStyle;rounded=0;orthogonalLoop=1;jettySize=auto;html=1;entryX=1;entryY=0.5;entryDx=0;entryDy=0;jumpStyle=gap;" edge="1" parent="1" source="AmxwaUaVY4FBrTd4A1zo-56" target="AmxwaUaVY4FBrTd4A1zo-61">
          <mxGeometry relative="1" as="geometry">
            <Array as="points">
              <mxPoint x="880" y="265" />
              <mxPoint x="880" y="395" />
            </Array>
          </mxGeometry>
        </mxCell>
        <mxCell id="AmxwaUaVY4FBrTd4A1zo-74" style="edgeStyle=orthogonalEdgeStyle;rounded=0;orthogonalLoop=1;jettySize=auto;html=1;entryX=1;entryY=0.5;entryDx=0;entryDy=0;jumpStyle=gap;" edge="1" parent="1" source="AmxwaUaVY4FBrTd4A1zo-56" target="AmxwaUaVY4FBrTd4A1zo-62">
          <mxGeometry relative="1" as="geometry">
            <Array as="points">
              <mxPoint x="920" y="265" />
              <mxPoint x="920" y="435" />
            </Array>
          </mxGeometry>
        </mxCell>
        <mxCell id="AmxwaUaVY4FBrTd4A1zo-84" style="edgeStyle=orthogonalEdgeStyle;rounded=0;orthogonalLoop=1;jettySize=auto;html=1;entryX=1;entryY=0.5;entryDx=0;entryDy=0;jumpStyle=gap;" edge="1" parent="1" source="AmxwaUaVY4FBrTd4A1zo-56" target="AmxwaUaVY4FBrTd4A1zo-64">
          <mxGeometry relative="1" as="geometry">
            <Array as="points">
              <mxPoint x="870" y="265" />
              <mxPoint x="870" y="515" />
            </Array>
          </mxGeometry>
        </mxCell>
        <mxCell id="AmxwaUaVY4FBrTd4A1zo-56" value="dim_product" style="rounded=1;whiteSpace=wrap;html=1;fillColor=#f0a30a;strokeColor=#BD7000;fontColor=#000000;" vertex="1" parent="1">
          <mxGeometry x="730" y="250" width="100" height="30" as="geometry" />
        </mxCell>
        <mxCell id="AmxwaUaVY4FBrTd4A1zo-83" style="edgeStyle=orthogonalEdgeStyle;rounded=0;orthogonalLoop=1;jettySize=auto;html=1;entryX=1;entryY=0.5;entryDx=0;entryDy=0;jumpStyle=gap;" edge="1" parent="1" source="AmxwaUaVY4FBrTd4A1zo-57" target="AmxwaUaVY4FBrTd4A1zo-64">
          <mxGeometry relative="1" as="geometry">
            <Array as="points">
              <mxPoint x="870" y="305" />
              <mxPoint x="870" y="515" />
            </Array>
          </mxGeometry>
        </mxCell>
        <mxCell id="AmxwaUaVY4FBrTd4A1zo-57" value="dim_supplier" style="rounded=1;whiteSpace=wrap;html=1;fillColor=#f0a30a;strokeColor=#BD7000;fontColor=#000000;" vertex="1" parent="1">
          <mxGeometry x="730" y="290" width="100" height="30" as="geometry" />
        </mxCell>
        <mxCell id="AmxwaUaVY4FBrTd4A1zo-76" style="edgeStyle=orthogonalEdgeStyle;rounded=0;orthogonalLoop=1;jettySize=auto;html=1;entryX=1;entryY=0.5;entryDx=0;entryDy=0;jumpStyle=gap;" edge="1" parent="1" source="AmxwaUaVY4FBrTd4A1zo-58" target="AmxwaUaVY4FBrTd4A1zo-62">
          <mxGeometry relative="1" as="geometry">
            <Array as="points">
              <mxPoint x="920" y="345.0000000000001" />
              <mxPoint x="920" y="435" />
            </Array>
          </mxGeometry>
        </mxCell>
        <mxCell id="AmxwaUaVY4FBrTd4A1zo-58" value="dim_warehouse" style="rounded=1;whiteSpace=wrap;html=1;fillColor=#f0a30a;strokeColor=#BD7000;fontColor=#000000;" vertex="1" parent="1">
          <mxGeometry x="730" y="330" width="100" height="30" as="geometry" />
        </mxCell>
        <mxCell id="AmxwaUaVY4FBrTd4A1zo-60" value="" style="shape=link;html=1;rounded=0;" edge="1" parent="1">
          <mxGeometry width="100" relative="1" as="geometry">
            <mxPoint x="730" y="370" as="sourcePoint" />
            <mxPoint x="830" y="370" as="targetPoint" />
          </mxGeometry>
        </mxCell>
        <mxCell id="AmxwaUaVY4FBrTd4A1zo-61" value="fact_sales" style="rounded=1;whiteSpace=wrap;html=1;fillColor=#6a00ff;strokeColor=#3700CC;fontColor=#ffffff;" vertex="1" parent="1">
          <mxGeometry x="730" y="380" width="100" height="30" as="geometry" />
        </mxCell>
        <mxCell id="AmxwaUaVY4FBrTd4A1zo-62" value="fact_inventory" style="rounded=1;whiteSpace=wrap;html=1;fillColor=#6a00ff;strokeColor=#3700CC;fontColor=#ffffff;" vertex="1" parent="1">
          <mxGeometry x="730" y="420" width="100" height="30" as="geometry" />
        </mxCell>
        <mxCell id="AmxwaUaVY4FBrTd4A1zo-63" value="fact_returns" style="rounded=1;whiteSpace=wrap;html=1;fillColor=#6a00ff;strokeColor=#3700CC;fontColor=#ffffff;" vertex="1" parent="1">
          <mxGeometry x="730" y="460" width="100" height="30" as="geometry" />
        </mxCell>
        <mxCell id="AmxwaUaVY4FBrTd4A1zo-64" value="fact_purchases" style="rounded=1;whiteSpace=wrap;html=1;fillColor=#6a00ff;strokeColor=#3700CC;fontColor=#ffffff;" vertex="1" parent="1">
          <mxGeometry x="730" y="500" width="100" height="30" as="geometry" />
        </mxCell>
        <mxCell id="AmxwaUaVY4FBrTd4A1zo-66" value="" style="endArrow=classic;html=1;rounded=0;exitX=1;exitY=0.25;exitDx=0;exitDy=0;entryX=-0.006;entryY=0.579;entryDx=0;entryDy=0;entryPerimeter=0;jumpStyle=gap;" edge="1" parent="1" source="AmxwaUaVY4FBrTd4A1zo-3" target="AmxwaUaVY4FBrTd4A1zo-5">
          <mxGeometry width="50" height="50" relative="1" as="geometry">
            <mxPoint x="490" y="350" as="sourcePoint" />
            <mxPoint x="540" y="300" as="targetPoint" />
          </mxGeometry>
        </mxCell>
        <mxCell id="AmxwaUaVY4FBrTd4A1zo-67" value="" style="endArrow=classic;html=1;rounded=0;exitX=1.006;exitY=0.669;exitDx=0;exitDy=0;exitPerimeter=0;entryX=0;entryY=0.25;entryDx=0;entryDy=0;jumpStyle=gap;" edge="1" parent="1" source="AmxwaUaVY4FBrTd4A1zo-3" target="AmxwaUaVY4FBrTd4A1zo-5">
          <mxGeometry width="50" height="50" relative="1" as="geometry">
            <mxPoint x="490" y="350" as="sourcePoint" />
            <mxPoint x="670" y="280" as="targetPoint" />
          </mxGeometry>
        </mxCell>
        <mxCell id="AmxwaUaVY4FBrTd4A1zo-68" value="" style="endArrow=classic;html=1;rounded=0;exitX=0.994;exitY=0.858;exitDx=0;exitDy=0;exitPerimeter=0;entryX=-0.006;entryY=0.364;entryDx=0;entryDy=0;entryPerimeter=0;jumpStyle=gap;" edge="1" parent="1" source="AmxwaUaVY4FBrTd4A1zo-3" target="AmxwaUaVY4FBrTd4A1zo-5">
          <mxGeometry width="50" height="50" relative="1" as="geometry">
            <mxPoint x="670" y="240" as="sourcePoint" />
            <mxPoint x="747" y="276" as="targetPoint" />
          </mxGeometry>
        </mxCell>
        <mxCell id="AmxwaUaVY4FBrTd4A1zo-69" value="" style="endArrow=classic;html=1;rounded=0;exitX=1.017;exitY=0.479;exitDx=0;exitDy=0;exitPerimeter=0;entryX=0;entryY=0.461;entryDx=0;entryDy=0;entryPerimeter=0;jumpStyle=gap;" edge="1" parent="1" source="AmxwaUaVY4FBrTd4A1zo-3" target="AmxwaUaVY4FBrTd4A1zo-5">
          <mxGeometry width="50" height="50" relative="1" as="geometry">
            <mxPoint x="680" y="220" as="sourcePoint" />
            <mxPoint x="757" y="256" as="targetPoint" />
          </mxGeometry>
        </mxCell>
        <mxCell id="AmxwaUaVY4FBrTd4A1zo-73" value="" style="endArrow=classic;html=1;rounded=0;exitX=0.994;exitY=0.484;exitDx=0;exitDy=0;exitPerimeter=0;entryX=0;entryY=0.675;entryDx=0;entryDy=0;entryPerimeter=0;jumpStyle=gap;" edge="1" parent="1" source="AmxwaUaVY4FBrTd4A1zo-3" target="AmxwaUaVY4FBrTd4A1zo-5">
          <mxGeometry width="50" height="50" relative="1" as="geometry">
            <mxPoint x="650" y="368" as="sourcePoint" />
            <mxPoint x="728" y="360" as="targetPoint" />
          </mxGeometry>
        </mxCell>
        <mxCell id="AmxwaUaVY4FBrTd4A1zo-77" value="" style="endArrow=classic;html=1;rounded=0;exitX=1.011;exitY=0.164;exitDx=0;exitDy=0;entryX=-0.011;entryY=0.798;entryDx=0;entryDy=0;entryPerimeter=0;exitPerimeter=0;jumpStyle=gap;" edge="1" parent="1" source="AmxwaUaVY4FBrTd4A1zo-3" target="AmxwaUaVY4FBrTd4A1zo-5">
          <mxGeometry width="50" height="50" relative="1" as="geometry">
            <mxPoint x="660" y="300" as="sourcePoint" />
            <mxPoint x="739" y="432" as="targetPoint" />
          </mxGeometry>
        </mxCell>
        <mxCell id="AmxwaUaVY4FBrTd4A1zo-78" style="edgeStyle=orthogonalEdgeStyle;rounded=0;orthogonalLoop=1;jettySize=auto;html=1;entryX=1;entryY=0.5;entryDx=0;entryDy=0;jumpStyle=gap;" edge="1" parent="1" source="AmxwaUaVY4FBrTd4A1zo-56" target="AmxwaUaVY4FBrTd4A1zo-63">
          <mxGeometry relative="1" as="geometry">
            <Array as="points">
              <mxPoint x="940" y="265" />
              <mxPoint x="940" y="475" />
            </Array>
          </mxGeometry>
        </mxCell>
        <mxCell id="AmxwaUaVY4FBrTd4A1zo-82" value="" style="endArrow=classic;html=1;rounded=0;exitX=1;exitY=0.75;exitDx=0;exitDy=0;entryX=0.006;entryY=0.883;entryDx=0;entryDy=0;entryPerimeter=0;jumpStyle=gap;" edge="1" parent="1" source="AmxwaUaVY4FBrTd4A1zo-3" target="AmxwaUaVY4FBrTd4A1zo-5">
          <mxGeometry width="50" height="50" relative="1" as="geometry">
            <mxPoint x="700" y="390" as="sourcePoint" />
            <mxPoint x="779" y="522" as="targetPoint" />
          </mxGeometry>
        </mxCell>
      </root>
    </mxGraphModel>
  </diagram>
</mxfile>
